<svg width="50.000000" height="47.698486" viewBox="0 0 50 47.6985" fill="none" xmlns="http://www.w3.org/2000/svg" xmlns:xlink="http://www.w3.org/1999/xlink">
	<desc>
			Created with Pixso.
	</desc>
	<defs>
		<clipPath id="clip1_8">
			<rect id="icon_tg" width="50.000000" height="47.698505" fill="white" fill-opacity="0"/>
		</clipPath>
	</defs>
	<rect id="icon_tg" width="50.000000" height="47.698505" fill="#FFFFFF" fill-opacity="0"/>
	<g clip-path="url(#clip1_8)">
		<path id="Исключить" d="M25 0C11.1929 0 0 10.6777 0 23.8491C0 37.0208 11.1929 47.6985 25 47.6985C38.8071 47.6985 50 37.0208 50 23.8491C50 10.6777 38.8071 0 25 0ZM11.958 27.3201C11.7314 27.2307 11.4905 27.1411 11.247 27.0505C9.71494 26.4812 8.08203 25.874 9.31064 25.0159C11.6636 23.7795 14.2368 22.7078 16.7411 21.6646C17.3474 21.4121 17.9496 21.1614 18.5436 20.9104C23.7876 18.8003 29.0524 16.7268 34.3703 14.7964C35.4049 14.4675 37.264 14.1458 37.4463 15.6086C37.3756 17.0742 37.1491 18.5339 36.923 19.9917C36.8297 20.5933 36.7364 21.1946 36.6541 21.7959C36.0488 25.6287 35.3636 29.4507 34.6786 33.2712C34.5547 33.9626 34.4307 34.6538 34.3073 35.3452C34.0297 36.8479 32.0562 37.626 30.7935 36.6643C30.0485 36.1841 29.302 35.7051 28.5554 35.2261C26.2611 33.7539 23.9655 32.2812 21.7052 30.7717C20.7238 29.8203 21.6339 28.4543 22.5103 27.7749C23.5165 26.8291 24.5474 25.9402 25.5745 25.0547C27.0983 23.7407 28.614 22.4341 30.0291 20.9578C30.6275 19.5791 29.0097 20.5796 28.2904 21.0244C28.2415 21.0547 28.197 21.0823 28.1573 21.1064C27.313 21.6614 26.4737 22.2249 25.6342 22.7886C23.0718 24.5088 20.5076 26.2302 17.7903 27.7195C16.1362 28.5879 14.2366 28.0105 12.5328 27.4929L12.5325 27.4927C12.3382 27.4336 12.1465 27.3755 11.958 27.3201Z" clip-rule="evenodd" fill="#E4E4E4" fill-opacity="1.000000" fill-rule="evenodd"/>
	</g>
</svg>
